ffmpeg started on 2016-11-30 at 19:05:22
Report written to "Output/x264/results/ffmpeg/old_town_cross_2160p50fast8000k.log"
Command line:
Tools/ffmpeg/ffmpeg -benchmark -y -i Input/y4m/old_town_cross_2160p50.y4m -c:v libx264 -preset fast -b:v 8000k -an Output/x264/encoded/old_town_cross_2160p50fast8000k.mkv
ffmpeg version N-82227-gdb23fde Copyright (c) 2000-2016 the FFmpeg developers
  built with gcc 5.4.0 (Ubuntu 5.4.0-6ubuntu1~16.04.2) 20160609
  configuration: --prefix=/home/jaroslav/ffmpeg_build --pkg-config-flags=--static --extra-cflags=-I/home/jaroslav/ffmpeg_build/include --extra-ldflags=-L/home/jaroslav/ffmpeg_build/lib --bindir=/home/jaroslav/bin --enable-gpl --enable-libass --enable-libfdk-aac --enable-libfreetype --enable-libmp3lame --enable-libopus --enable-libtheora --enable-libvorbis --enable-libvpx --enable-libx264 --enable-libx265 --enable-nvenc --enable-libmfx --enable-libxvid --enable-libgsm --enable-libopencore-amrnb --enable-version3 --enable-nonfree
  libavutil      55. 35.100 / 55. 35.100
  libavcodec     57. 66.101 / 57. 66.101
  libavformat    57. 57.100 / 57. 57.100
  libavdevice    57.  2.100 / 57.  2.100
  libavfilter     6. 66.100 /  6. 66.100
  libswscale      4.  3.100 /  4.  3.100
  libswresample   2.  4.100 /  2.  4.100
  libpostproc    54.  2.100 / 54.  2.100
Input #0, yuv4mpegpipe, from 'Input/y4m/old_town_cross_2160p50.y4m':
  Duration: 00:00:10.00, start: 0.000000, bitrate: 4976642 kb/s
    Stream #0:0: Video: rawvideo (I420 / 0x30323449), yuv420p(progressive), 3840x2160, SAR 1:1 DAR 16:9, 50 fps, 50 tbr, 50 tbn, 50 tbc
[libx264 @ 0x26e6120] using SAR=1/1
[libx264 @ 0x26e6120] using cpu capabilities: MMX2 SSE2Fast SSSE3 SSE4.2 AVX FMA3 AVX2 LZCNT BMI2
[libx264 @ 0x26e6120] profile High, level 5.2
[libx264 @ 0x26e6120] 264 - core 148 - H.264/MPEG-4 AVC codec - Copyleft 2003-2016 - http://www.videolan.org/x264.html - options: cabac=1 ref=2 deblock=1:0:0 analyse=0x3:0x113 me=hex subme=6 psy=1 psy_rd=1.00:0.00 mixed_ref=1 me_range=16 chroma_me=1 trellis=1 8x8dct=1 cqm=0 deadzone=21,11 fast_pskip=1 chroma_qp_offset=-2 threads=6 lookahead_threads=1 sliced_threads=0 nr=0 decimate=1 interlaced=0 bluray_compat=0 constrained_intra=0 bframes=3 b_pyramid=2 b_adapt=1 b_bias=0 direct=1 weightb=1 open_gop=0 weightp=1 keyint=250 keyint_min=25 scenecut=40 intra_refresh=0 rc_lookahead=30 rc=abr mbtree=1 bitrate=8000 ratetol=1.0 qcomp=0.60 qpmin=0 qpmax=69 qpstep=4 ip_ratio=1.40 aq=1:1.00
Output #0, matroska, to 'Output/x264/encoded/old_town_cross_2160p50fast8000k.mkv':
  Metadata:
    encoder         : Lavf57.57.100
    Stream #0:0: Video: h264 (libx264) (H264 / 0x34363248), yuv420p, 3840x2160 [SAR 1:1 DAR 16:9], q=-1--1, 8000 kb/s, 50 fps, 1k tbn, 50 tbc
    Metadata:
      encoder         : Lavc57.66.101 libx264
    Side data:
      cpb: bitrate max/min/avg: 0/0/8000000 buffer size: 0 vbv_delay: -1
Stream mapping:
  Stream #0:0 -> #0:0 (rawvideo (native) -> h264 (libx264))
Press [q] to stop, [?] for help
frame=   37 fps= 20 q=0.0 size=       0kB time=00:00:00.00 bitrate=N/A speed=   0x    frame=   46 fps= 19 q=40.0 size=       1kB time=00:00:00.06 bitrate=  96.3kbits/s speed=0.025x    frame=   56 fps= 19 q=40.0 size=       1kB time=00:00:00.26 bitrate=  22.5kbits/s speed=0.0885x    frame=   66 fps= 18 q=36.0 size=       1kB time=00:00:00.46 bitrate=  12.7kbits/s speed=0.126x    frame=   75 fps= 18 q=36.0 size=       1kB time=00:00:00.64 bitrate=   9.2kbits/s speed=0.154x    frame=   84 fps= 18 q=35.0 size=       1kB time=00:00:00.82 bitrate=   7.2kbits/s speed=0.172x    frame=   92 fps= 17 q=35.0 size=       1kB time=00:00:00.98 bitrate=   6.0kbits/s speed=0.186x    frame=  100 fps= 17 q=35.0 size=       1kB time=00:00:01.14 bitrate=   5.1kbits/s speed=0.196x    frame=  109 fps= 17 q=35.0 size=       1kB time=00:00:01.32 bitrate=   4.4kbits/s speed=0.208x    frame=  116 fps= 17 q=35.0 size=       1kB time=00:00:01.46 bitrate=   4.0kbits/s speed=0.211x    frame=  125 fps= 17 q=34.0 size=       1kB time=00:00:01.64 bitrate=   3.6kbits/s speed=0.22x    frame=  133 fps= 17 q=34.0 size=       1kB time=00:00:01.80 bitrate=   3.3kbits/s speed=0.226x    frame=  142 fps= 17 q=34.0 size=       1kB time=00:00:01.98 bitrate=   3.0kbits/s speed=0.232x    frame=  150 fps= 17 q=34.0 size=       1kB time=00:00:02.14 bitrate=   2.7kbits/s speed=0.237x    frame=  157 fps= 16 q=34.0 size=       1kB time=00:00:02.28 bitrate=   2.6kbits/s speed=0.237x    frame=  167 fps= 16 q=34.0 size=       1kB time=00:00:02.48 bitrate=   2.4kbits/s speed=0.242x    frame=  176 fps= 16 q=34.0 size=       1kB time=00:00:02.66 bitrate=   2.2kbits/s speed=0.246x    frame=  184 fps= 16 q=34.0 size=       1kB time=00:00:02.82 bitrate=   2.1kbits/s speed=0.248x    frame=  192 fps= 16 q=34.0 size=       1kB time=00:00:02.98 bitrate=   2.0kbits/s speed=0.25x    frame=  202 fps= 16 q=34.0 size=       1kB time=00:00:03.18 bitrate=   1.8kbits/s speed=0.255x    frame=  209 fps= 16 q=34.0 size=       1kB time=00:00:03.32 bitrate=   1.8kbits/s speed=0.255x    frame=  217 fps= 16 q=34.0 size=       1kB time=00:00:03.48 bitrate=   1.7kbits/s speed=0.258x    frame=  226 fps= 16 q=34.0 size=       1kB time=00:00:03.66 bitrate=   1.6kbits/s speed=0.26x    frame=  234 fps= 16 q=34.0 size=       1kB time=00:00:03.82 bitrate=   1.5kbits/s speed=0.262x    frame=  242 fps= 16 q=34.0 size=       1kB time=00:00:03.98 bitrate=   1.5kbits/s speed=0.262x    frame=  250 fps= 16 q=34.0 size=       1kB time=00:00:04.14 bitrate=   1.4kbits/s speed=0.264x    frame=  252 fps= 15 q=34.0 size=       1kB time=00:00:04.18 bitrate=   1.4kbits/s speed=0.253x    frame=  254 fps= 15 q=34.0 size=       1kB time=00:00:04.22 bitrate=   1.4kbits/s speed=0.246x    frame=  256 fps= 14 q=34.0 size=       1kB time=00:00:04.26 bitrate=   1.4kbits/s speed=0.24x    frame=  261 fps= 14 q=35.0 size=       1kB time=00:00:04.36 bitrate=   1.3kbits/s speed=0.237x    frame=  266 fps= 14 q=35.0 size=       1kB time=00:00:04.46 bitrate=   1.3kbits/s speed=0.235x    frame=  271 fps= 14 q=35.0 size=       1kB time=00:00:04.56 bitrate=   1.3kbits/s speed=0.233x    frame=  276 fps= 14 q=35.0 size=       1kB time=00:00:04.66 bitrate=   1.3kbits/s speed=0.231x    frame=  281 fps= 14 q=35.0 size=       1kB time=00:00:04.76 bitrate=   1.2kbits/s speed=0.229x    frame=  286 fps= 13 q=35.0 size=       1kB time=00:00:04.86 bitrate=   1.2kbits/s speed=0.228x    frame=  295 fps= 13 q=35.0 size=    4775kB time=00:00:05.04 bitrate=7760.5kbits/s speed=0.23x    frame=  302 fps= 13 q=36.0 size=    4775kB time=00:00:05.18 bitrate=7550.8kbits/s speed=0.231x    frame=  312 fps= 14 q=35.0 size=    4775kB time=00:00:05.38 bitrate=7270.1kbits/s speed=0.234x    frame=  320 fps= 14 q=35.0 size=    4775kB time=00:00:05.54 bitrate=7060.2kbits/s speed=0.236x    frame=  328 fps= 14 q=35.0 size=    4775kB time=00:00:05.70 bitrate=6862.1kbits/s speed=0.237x    frame=  335 fps= 14 q=35.0 size=    4775kB time=00:00:05.84 bitrate=6697.6kbits/s speed=0.238x    frame=  342 fps= 14 q=35.0 size=    4775kB time=00:00:05.98 bitrate=6540.8kbits/s speed=0.239x    frame=  351 fps= 14 q=35.0 size=    4775kB time=00:00:06.16 bitrate=6349.7kbits/s speed=0.241x    frame=  359 fps= 14 q=35.0 size=    4775kB time=00:00:06.32 bitrate=6189.0kbits/s speed=0.242x    frame=  367 fps= 14 q=35.0 size=    4775kB time=00:00:06.48 bitrate=6036.2kbits/s speed=0.243x    frame=  376 fps= 14 q=35.0 size=    4775kB time=00:00:06.66 bitrate=5873.1kbits/s speed=0.244x    frame=  384 fps= 14 q=35.0 size=    4775kB time=00:00:06.82 bitrate=5735.3kbits/s speed=0.246x    frame=  393 fps= 14 q=35.0 size=    4775kB time=00:00:07.00 bitrate=5587.9kbits/s speed=0.247x    frame=  401 fps= 14 q=35.0 size=    4775kB time=00:00:07.16 bitrate=5463.0kbits/s speed=0.247x    frame=  409 fps= 14 q=35.0 size=    4775kB time=00:00:07.32 bitrate=5343.6kbits/s speed=0.248x    frame=  418 fps= 14 q=35.0 size=    4775kB time=00:00:07.50 bitrate=5215.4kbits/s speed=0.25x    frame=  424 fps= 14 q=35.0 size=    4775kB time=00:00:07.62 bitrate=5133.3kbits/s speed=0.25x    frame=  433 fps= 14 q=35.0 size=    4775kB time=00:00:07.80 bitrate=5014.8kbits/s speed=0.252x    frame=  441 fps= 14 q=35.0 size=    4775kB time=00:00:07.96 bitrate=4914.0kbits/s speed=0.252x    frame=  449 fps= 14 q=35.0 size=    4775kB time=00:00:08.12 bitrate=4817.2kbits/s speed=0.253x    frame=  457 fps= 14 q=35.0 size=    4775kB time=00:00:08.28 bitrate=4724.1kbits/s speed=0.253x    frame=  467 fps= 14 q=35.0 size=    4775kB time=00:00:08.48 bitrate=4612.7kbits/s speed=0.255x    frame=  474 fps= 14 q=35.0 size=    4775kB time=00:00:08.62 bitrate=4537.8kbits/s speed=0.255x    frame=  482 fps= 14 q=35.0 size=    4775kB time=00:00:08.78 bitrate=4455.1kbits/s speed=0.256x    frame=  491 fps= 14 q=35.0 size=    4775kB time=00:00:08.96 bitrate=4365.6kbits/s speed=0.257x    frame=  493 fps= 14 q=35.0 size=    4775kB time=00:00:09.00 bitrate=4346.2kbits/s speed=0.252x    frame=  495 fps= 14 q=35.0 size=    4775kB time=00:00:09.04 bitrate=4327.0kbits/s speed=0.248x    frame=  497 fps= 13 q=35.0 size=    4775kB time=00:00:09.08 bitrate=4308.0kbits/s speed=0.245x    frame=  500 fps= 13 q=-1.0 Lsize=    9909kB time=00:00:09.94 bitrate=8165.7kbits/s speed=0.252x    
video:9905kB audio:0kB subtitle:0kB other streams:0kB global headers:0kB muxing overhead: 0.045305%
bench: utime=132.308s
bench: maxrss=1607320kB
[libx264 @ 0x26e6120] frame I:3     Avg QP:30.92  size:290499
[libx264 @ 0x26e6120] frame P:183   Avg QP:32.84  size: 29471
[libx264 @ 0x26e6120] frame B:314   Avg QP:34.71  size: 12347
[libx264 @ 0x26e6120] consecutive B-frames: 16.0%  0.8%  0.0% 83.2%
[libx264 @ 0x26e6120] mb I  I16..4:  9.8% 75.1% 15.1%
[libx264 @ 0x26e6120] mb P  I16..4:  0.1%  0.2%  0.0%  P16..4: 28.2%  2.2%  2.4%  0.0%  0.0%    skip:66.9%
[libx264 @ 0x26e6120] mb B  I16..4:  0.3%  0.3%  0.0%  B16..8: 12.9%  0.4%  0.0%  direct: 8.8%  skip:77.3%  L0:34.4% L1:65.2% BI: 0.4%
[libx264 @ 0x26e6120] final ratefactor: 26.95
[libx264 @ 0x26e6120] 8x8 transform intra:63.1% inter:86.7%
[libx264 @ 0x26e6120] coded y,uvDC,uvAC intra: 43.8% 54.9% 29.4% inter: 4.8% 5.6% 0.0%
[libx264 @ 0x26e6120] i16 v,h,dc,p: 43% 31% 15% 11%
[libx264 @ 0x26e6120] i8 v,h,dc,ddl,ddr,vr,hd,vl,hu: 17% 17% 38%  4%  4%  4%  6%  3%  5%
[libx264 @ 0x26e6120] i4 v,h,dc,ddl,ddr,vr,hd,vl,hu: 23% 28% 11%  6%  7%  6%  9%  4%  6%
[libx264 @ 0x26e6120] i8c dc,h,v,p: 69% 14% 15%  2%
[libx264 @ 0x26e6120] Weighted P-Frames: Y:0.5% UV:0.0%
[libx264 @ 0x26e6120] ref P L0: 73.3% 26.7%
[libx264 @ 0x26e6120] ref B L0: 90.6%  9.4%
[libx264 @ 0x26e6120] ref B L1: 96.4%  3.6%
[libx264 @ 0x26e6120] kb/s:8113.34
